<?xml version="1.0" standalone="no"?>
<!DOCTYPE svg PUBLIC "-//W3C//DTD SVG 20010904//EN"
 "http://www.w3.org/TR/2001/REC-SVG-20010904/DTD/svg10.dtd">
<svg version="1.0" xmlns="http://www.w3.org/2000/svg"
 width="500.000000pt" height="500.000000pt" viewBox="0 0 500.000000 500.000000"
 preserveAspectRatio="xMidYMid meet" sodipodi:docname="logome.svg">

<g transform="translate(0.000000,500.000000) scale(0.100000,-0.100000)"
fill="#000000" stroke="none">
<path d="M2350 4990 c-610 -34 -1184 -294 -1624 -736 -193 -194 -335 -393
-461 -649 -125 -252 -203 -507 -242 -790 -18 -135 -21 -462 -4 -595 61 -480
246 -924 536 -1285 134 -167 368 -382 545 -500 430 -286 890 -427 1395 -429
662 -2 1282 252 1759 722 637 627 887 1550 656 2418 -134 503 -431 961 -834
1288 -214 173 -506 338 -745 421 -314 108 -647 154 -981 135z m190 -1063 c48
-25 18 22 372 -602 94 -165 171 -301 173 -303 1 -1 114 194 251 434 168 294
258 442 278 457 18 12 49 22 80 24 70 5 145 -37 175 -100 l21 -44 -2 -1351
c-3 -1346 -3 -1351 -24 -1378 -40 -55 -70 -69 -142 -69 -73 0 -112 19 -148 72
-18 27 -19 70 -24 1049 l-5 1021 -155 -271 c-85 -149 -167 -285 -182 -302 -41
-47 -105 -62 -172 -41 -29 9 -62 27 -73 39 -11 13 -87 140 -168 283 -81 143
-161 285 -179 315 l-31 55 -5 -810 c-6 -887 -2 -826 -66 -971 -82 -185 -259
-340 -469 -411 -72 -24 -94 -27 -225 -27 -131 0 -153 3 -225 27 -127 43 -220
100 -311 191 -92 92 -151 185 -190 301 -22 66 -28 103 -32 207 -6 161 12 244
79 377 135 270 421 436 719 418 115 -7 190 -27 290 -75 41 -21 78 -38 83 -40
4 -2 7 306 7 684 0 799 -7 741 103 812 34 22 69 42 77 45 33 12 79 6 120 -16z"/>
</g>
</svg>
