<svg xmlns="http://www.w3.org/2000/svg" version="1.1" xmlns:xlink="http://www.w3.org/1999/xlink" xmlns:svgjs="http://svgjs.dev/svgjs" width="2000" height="1985" viewBox="0 0 2000 1985"><g transform="matrix(1,0,0,1,-0.7464788732389707,-2.8085638297868627)"><svg viewBox="0 0 142 141" data-background-color="#ffffff" preserveAspectRatio="xMidYMid meet" height="1985" width="2000" xmlns="http://www.w3.org/2000/svg" xmlns:xlink="http://www.w3.org/1999/xlink"><g id="tight-bounds" transform="matrix(1,0,0,1,0.05299999999996885,0.19949999999997203)"><svg viewBox="0 0 141.89382402555913 140.60052000000002" height="140.60052000000002" width="141.89382402555913"><g><svg viewBox="0 0 141.89382402555913 140.60052000000002" height="140.60052000000002" width="141.89382402555913"><g><svg viewBox="0 0 141.89382402555913 140.60052000000002" height="140.60052000000002" width="141.89382402555913"><g><path d="M0 140.601v-140.601h141.894v140.601z" fill="#000000" stroke="transparent" stroke-width="0" rx="0%" data-fill-palette-color="tertiary"></path><path d="M3.283 137.317v-134.034h135.328v134.034z" fill="#ffffff" stroke="transparent" stroke-width="0" rx="0%" data-fill-palette-color="quaternary"></path><path d="M9.85 130.751v-120.901h122.194v120.901z" fill="#000000" stroke="transparent" stroke-width="0" data-fill-palette-color="tertiary"></path></g><g transform="matrix(1,0,0,1,19.699740000000006,19.69974)" id="textblocktransform"><svg viewBox="0 0 102.49434402555912 101.20104" height="101.20104" width="102.49434402555912" id="textblock"><g><svg viewBox="0 0 102.49434402555912 101.20104" height="101.20104" width="102.49434402555912"><g transform="matrix(1,0,0,1,0,0)"><svg width="102.49434402555912" viewBox="1.5 -35 47.55 46.95" height="101.20104" data-palette-color="#ffffff"><path d="M3.55-35L7.3-35 7.3-30.6 3.55-30.6 3.55-35ZM3.7 11.95L1.5 10.2Q3.55 7.55 3.55 1.7L3.55 1.7 3.55-25 7.3-25 7.3 0.5Q7.3 4.8 6.48 7.35 5.65 9.9 3.7 11.95L3.7 11.95ZM26.2-25.55L26.2-25.55Q31-25.55 33.05-22.15L33.05-22.15Q37.3-25.55 40.9-25.55 44.5-25.55 46.77-23.53 49.05-21.5 49.05-17.65L49.05-17.65 49.05 0 45.4 0 45.4-16.1Q45.4-19.15 44.02-20.73 42.65-22.3 40.35-22.3L40.35-22.3Q37.2-22.3 34-19.8L34-19.8Q34.25-18.7 34.25-17.65L34.25-17.65 34.25 0 30.6 0 30.6-16.1Q30.6-19.15 29.22-20.73 27.85-22.3 25.55-22.3L25.55-22.3Q24.05-22.3 22.8-21.9 21.55-21.5 20.95-21.1 20.35-20.7 19.4-19.9L19.4-19.9 19.4 0 15.65 0 15.65-25 18.05-25 18.7-22.45Q19.95-23.5 20.62-23.98 21.3-24.45 22.85-25 24.4-25.55 26.2-25.55Z" opacity="1" transform="matrix(1,0,0,1,0,0)" fill="#ffffff" class="wordmark-text-0" data-fill-palette-color="quaternary" id="text-0"></path></svg></g></svg></g></svg></g></svg></g><g></g></svg></g><defs></defs></svg><rect width="141.89382402555913" height="140.60052000000002" fill="none" stroke="none" visibility="hidden"></rect></g></svg></g></svg>